<svg xmlns="http://www.w3.org/2000/svg"><path d="m12.276 21.615c-3.173 4.56-2.778 10.495-.354 15.34l.3.563c.022.043.047.085.07.125.04.077.084.15.126.226l.23.397.132.217.384.597a19.84 19.84 0 0 0 .389.561l.077.103a18.36 18.36 0 0 0 .355.471l.133.17.328.402.125.15a21.04 21.04 0 0 0 .456.521c.016.017.02.02.027.03a22.92 22.92 0 0 0 .464.489l.15.15.37.363.152.144c.167.157.336.3.507.462.037.033.067.057.096.082l.46.4.2.152.384.3.205.156.43.3.157.112c.015.01.028.02.043.03.138.095.278.186.42.277l.18.12a23.32 23.32 0 0 0 .656.402l.18.102.492.276c.1.048.182.094.272.14l.352.183.08.04.144.07.558.258.118.053a19.98 19.98 0 0 0 .651.27l.158.062.614.228.077.027a19.57 19.57 0 0 0 .685.224l.165.05c.234.07.466.155.707.2 15.346 2.8 19.804-9.222 19.804-9.222-3.744 4.878-10.4 6.164-16.686 4.732-.238-.054-.47-.128-.703-.197l-.175-.053a22.27 22.27 0 0 1 -.677-.22l-.093-.033a21.28 21.28 0 0 1 -.597-.221l-.167-.066c-.217-.086-.432-.175-.644-.268l-.13-.057-.543-.253-.157-.075-.42-.214-.28-.147c-.17-.1-.337-.186-.504-.282l-.17-.095a24.39 24.39 0 0 1 -.656-.402c-.06-.038-.118-.08-.177-.118l-.467-.3-.15-.106-.44-.32-.594-.448-.178-.142-.496-.418c-.017-.015-.036-.03-.054-.046a19.62 19.62 0 0 1 -.52-.474l-.147-.14-.375-.367-.147-.147-.46-.486a.51.51 0 0 0 -.023-.024 18.69 18.69 0 0 1 -.466-.531l-.122-.145-.336-.415-.123-.153-.388-.516c-3.496-4.768-4.752-11.345-1.958-16.746m7.383-.702c-2.295 3.302-2.17 7.723-.38 11.216a14.61 14.61 0 0 0 1.015 1.694c.344.493.725 1.08 1.18 1.475a12.93 12.93 0 0 0 .515.534 5.43 5.43 0 0 0 .136.134l.526.5c.007.006.014.013.02.02.205.18.4.348.62.513l.14.1a15.08 15.08 0 0 0 .643.469c.007.005.012.01.02.014.097.067.195.13.293.193.047.03.092.063.14.092.157.1.315.198.476.292l.067.04.42.235c.05.028.1.052.15.078l.295.152c.015.007.03.014.045.02a15.1 15.1 0 0 0 .614.286c.045.02.1.037.136.056l.504.204.216.08c.153.057.307.1.462.16l.2.067c.22.07.44.155.67.193 11.85 1.963 14.584-7.16 14.584-7.16-2.466 3.552-7.24 5.246-12.337 3.923a14.63 14.63 0 0 1 -.671-.194c-.068-.02-.134-.043-.202-.065a13.6 13.6 0 0 1 -.469-.162l-.212-.08a14.79 14.79 0 0 1 -.505-.204l-.156-.068a14.1 14.1 0 0 1 -.618-.287c-.105-.05-.207-.105-.3-.158l-.18-.092a14.72 14.72 0 0 1 -.392-.221l-.094-.053c-.16-.094-.318-.2-.475-.3-.048-.03-.095-.064-.143-.096l-.298-.193c-.218-.15-.43-.3-.64-.468l-.144-.113c-2.23-1.76-4-4.168-4.84-6.896-.88-2.83-.7-6.007.835-8.585m6.4-.235c-1.353 2-1.486 4.463-.547 6.662 1 2.334 3.018 4.165 5.386 5.033l.294.102.13.04.422.122c6.543 1.264 8.317-3.357 8.8-4.037-1.555 2.238-4.167 2.775-7.372 1.997a8.34 8.34 0 0 1 -.776-.239 9.48 9.48 0 0 1 -.921-.383c-.57-.273-1.112-.605-1.615-.985-2.868-2.176-4.65-6.328-2.778-9.7" fill="#0868ac"/></svg>
